<?xml version="1.0" encoding="utf-8"?>
<!-- Generator: Adobe Illustrator 21.0.2, SVG Export Plug-In . SVG Version: 6.00 Build 0)  -->
<svg version="1.1" xmlns="http://www.w3.org/2000/svg" xmlns:xlink="http://www.w3.org/1999/xlink" x="0px" y="0px"
	 viewBox="0 0 100 100" style="enable-background:new 0 0 100 100;" xml:space="preserve">
<style type="text/css">
	.st0{fill:#010101;}
	.st1{fill:#FFFFFF;}
</style>
<g id="Layer_1">
	<g>
		<polygon class="st0" points="78.1,51.4 78.1,79.2 22,79.2 22,26.5 50.4,26.5 50.4,24.5 20,24.5 20,81.2 80,81.2 80,51.4 		"/>
	</g>
	<g>
		<g>
			<path d="M42.3,49v-1.3c-1.3-1.1-2.2-2.8-2.2-4.6c0-3.3,2.8-6.1,6.1-6.1c3.3,0,6.1,2.8,6.1,6.1c0,1.4-0.6,2.9-1.4,3.9
				c0.4,0,0.8,0.1,1.2,0.2c0.9-1.2,1.3-2.6,1.3-4.2c0-4-3.2-7.2-7.2-7.2S39,39,39,42.9C39,45.5,40.3,47.7,42.3,49z"/>
			<path d="M51.1,42.9c0-2.8-2.2-5-5-5c-2.8,0-5,2.2-5,5c0,1.2,0.4,2.3,1.1,3.1v-3.1c0-2.1,1.8-3.9,3.9-3.9s3.9,1.8,3.9,3.9V46
				C50.7,45.3,51.1,44.2,51.1,42.9z"/>
			<path d="M59.4,51.2c-0.7,0-1.2,0.2-1.7,0.6l0,0c0-1.5-1.2-2.8-2.8-2.8c-0.7,0-1.3,0.2-1.9,0.7c-0.4-1.1-1.4-1.8-2.5-1.8
				c-0.7,0-1.2,0.2-1.7,0.6v-5.5c0-1.5-1.2-2.8-2.8-2.8s-2.8,1.2-2.8,2.8v9.8c-2.2-2-4.6-3.5-6.2-2c-2.2,2.2,2.4,6.5,5.9,13
				c2.5,4.5,6.1,6.2,9.6,6.2c5.2,0,9.4-4.2,9.4-9.4V54C62.1,52.4,60.9,51.2,59.4,51.2z M61,56.4v4.2c0,4.3-3.7,8.3-8.3,8.3
				c-4.2,0-6.6-2.3-8.6-5.5C39.9,56,36.8,52.7,38,51.5c1.2-1.2,4.2,1.4,6.5,3.9V42.9c0-0.9,0.8-1.7,1.7-1.7s1.7,0.8,1.7,1.7v11.6
				h1.1v-3.9c0-0.9,0.8-1.7,1.7-1.7c0.9,0,1.7,0.8,1.7,1.7v2.8h1.1v-1.7c0-0.9,0.8-1.7,1.7-1.7c0.9,0,1.7,0.8,1.7,1.7v2.8h1.1V54
				c0-0.9,0.8-1.7,1.7-1.7c0.9,0,1.7,0.8,1.7,1.7L61,56.4L61,56.4z"/>
		</g>
	</g>
	<path class="st1" d="M38,51.5c0,0,1.2-2.2,6.5,3.9c0-4.3,0-12.4,0-12.4s0.7-2,1.7-1.7c0,0,1.8,0.2,1.7,1.7c-0.2,1.5,0,11.6,0,11.6
		h1.1v-3.9c0,0,0-1.4,1.7-1.7c0.9,0.3,1.6,0.5,1.7,1.7s0,2.8,0,2.8h1.1v-1.7c0,0,0.1-1.4,1.7-1.7c1.2,0.6,1.7,0.4,1.7,1.7
		c0,1.2,0,2.8,0,2.8h1.1c0,0-0.2-2.2,1.7-2.2c0.9,0.6,1.7,0.2,1.7,1.7c-0.1,1.5,0,6.6,0,6.6s-0.2,7.6-8.3,8.3
		c-1.7-0.1-4.6-0.2-6.6-2.9s-2-2.6-2-2.6L38,54.1C38,54.1,37.3,51.1,38,51.5z"/>
</g>
<g id="Слой_2">
</g>
</svg>
