<?xml version="1.0" ?><svg enable-background="new 0 0 130 130" id="Layer_1" version="1.1" viewBox="0 0 130 130" xml:space="preserve" xmlns="http://www.w3.org/2000/svg" xmlns:xlink="http://www.w3.org/1999/xlink"><g><path d="M88.6,58.2c0-0.6-0.1-1.1-0.5-1.4c-0.3-0.3-0.8-0.5-1.5-0.5c-0.1,0-0.3,0-0.4,0c-0.6,0-1.2,0-1.9,0c-1,0-1.9,0-2.9,0   l-0.2,0l-0.1-0.1c-0.6-1.4-1.1-2.8-1.6-4.2l0,0c0.1-0.1,0.3-0.2,0.4-0.3c1.1-1.1,2.3-2.2,3.4-3.4c0.4-0.4,0.7-0.9,0.7-1.4   c0-0.5-0.2-0.9-0.6-1.3c-2.3-2.4-4.7-4.7-7-7.1c-0.5-0.5-0.9-0.7-1.4-0.7c-0.5,0-0.9,0.3-1.4,0.7c-1.2,1.2-2.4,2.4-3.7,3.6   c-0.1,0.1-0.2,0.1-0.2,0.1c0,0-0.1,0-0.2-0.1c-1.2-0.5-2.5-1-3.7-1.5c-0.1-0.1-0.2-0.1-0.2-0.1c0,0,0-0.1,0-0.2v0   c0-0.9,0-1.8,0-2.6c0-0.9,0-1.7,0-2.6c0-0.6-0.1-1-0.5-1.3c-0.3-0.3-0.8-0.5-1.3-0.5c-1.7,0-3.4,0-5.1,0c0,0-0.1,0-0.1,0   s-0.1,0-0.1,0c-1.7,0-3.4,0-5.1,0c-0.6,0-1,0.1-1.3,0.5c-0.3,0.3-0.5,0.8-0.5,1.3c0,0.9,0,1.7,0,2.6c0,0.9,0,1.8,0,2.6v0   c0,0.1,0,0.2,0,0.2c0,0-0.1,0.1-0.2,0.1c-1.2,0.5-2.5,1-3.7,1.5c-0.1,0-0.2,0.1-0.2,0.1c0,0-0.1,0-0.2-0.1   c-1.2-1.2-2.4-2.4-3.7-3.6c-0.5-0.5-0.9-0.7-1.4-0.7c-0.5,0-0.9,0.3-1.4,0.7c-2.3,2.4-4.7,4.7-7,7.1c-0.4,0.4-0.6,0.9-0.6,1.3   c0,0.5,0.2,0.9,0.7,1.4c1.1,1.1,2.2,2.3,3.4,3.4c0.1,0.1,0.3,0.2,0.4,0.3l0,0c-0.5,1.4-1.1,2.8-1.6,4.2l-0.1,0.1l-0.2,0   c-0.9,0-1.9,0-2.9,0c-0.6,0-1.2,0-1.9,0c-0.1,0-0.3,0-0.4,0c-0.6,0-1.1,0.1-1.5,0.5c-0.3,0.3-0.5,0.8-0.5,1.4c0,1.6,0,3.1,0,4.7   c0,1.7,0,3.5,0,5.2c0,0.7,0.1,1.2,0.5,1.5c0.3,0.3,0.9,0.5,1.5,0.5c0.2,0,0.4,0,0.5,0c0.6,0,1.1,0,1.7,0c0.9,0,1.9,0,2.8,0l0.2,0.1   l0.1,0.1l0,0l0,0c0.5,1.3,1.1,2.7,1.7,4.3c-1.2,1.2-2.6,2.4-3.9,3.7c-0.4,0.4-0.6,0.8-0.6,1.3c0,0.5,0.2,0.9,0.6,1.3   c2.4,2.4,4.8,4.8,7.2,7.2c0.4,0.4,0.9,0.7,1.3,0.7c0.5,0,0.9-0.3,1.4-0.7c1.2-1.2,2.5-2.5,3.7-3.7c0.1-0.1,0.2-0.1,0.2-0.1   c0,0,0.1,0,0.2,0.1c1.2,0.5,2.4,1,3.7,1.5c0.1,0.1,0.2,0.1,0.2,0.1c0,0,0,0.1,0,0.2v0c0,0.8,0,1.7,0,2.5c0,0.9,0,1.7,0,2.6   c0,0.6,0.1,1.1,0.5,1.4c0.3,0.3,0.8,0.5,1.4,0.5c1.7,0,3.3,0,5,0l0,0c0,0,0,0,0.1,0s0,0,0.1,0l0,0c1.7,0,3.3,0,5,0   c0.6,0,1.1-0.1,1.4-0.5c0.3-0.3,0.5-0.8,0.5-1.4c0-0.9,0-1.7,0-2.6c0-0.8,0-1.7,0-2.5v0c0-0.1,0-0.2,0-0.2c0,0,0.1-0.1,0.2-0.1   c1.2-0.5,2.5-1,3.7-1.5c0.1,0,0.2-0.1,0.2-0.1c0,0,0.1,0,0.2,0.1c1.2,1.2,2.5,2.5,3.7,3.7c0.4,0.4,0.9,0.7,1.4,0.7   c0.5,0,0.9-0.3,1.3-0.7c2.4-2.4,4.8-4.8,7.2-7.2c0.4-0.4,0.6-0.8,0.6-1.3c0-0.5-0.2-0.9-0.6-1.3c-1.3-1.3-2.7-2.5-3.9-3.7   c0.6-1.6,1.1-3,1.7-4.3l0,0l0,0l0.1-0.1l0.2-0.1c0.9,0,1.9,0,2.8,0c0.6,0,1.1,0,1.7,0c0.2,0,0.4,0,0.5,0c0.7,0,1.2-0.1,1.5-0.5   c0.3-0.4,0.5-0.9,0.5-1.5c0-1.7,0-3.5,0-5.2C88.6,61.4,88.6,59.8,88.6,58.2z M86.8,68.3c-2.2,0-4.4,0-6.6,0H80l-0.1,0.2   c0,0.1-0.1,0.2-0.1,0.3c-0.5,1.8-1.2,3.6-2.2,5.2c-0.1,0.2-0.2,0.4-0.2,0.6c0,0.3,0.2,0.5,0.4,0.7c1.4,1.4,2.9,2.8,4.3,4.2   c-2.4,2.4-4.7,4.7-7.2,7.2c0-0.1-0.1-0.1-0.2-0.2c-1.4-1.4-2.8-2.8-4.2-4.2C70.4,82.1,70.2,82,70,82c-0.2,0-0.3,0.1-0.5,0.1   c-1.7,1-3.4,1.7-5.3,2.2c-0.2,0-0.4,0.1-0.5,0.3c-0.1,0.2-0.1,0.3-0.1,0.5l0,0c0,0,0,0,0,0v0l0,0v0c0,1,0,2,0,3c0,1,0,1.9,0,2.9   c0,0.1,0,0.2,0,0.3c-1.7,0-3.4,0-5,0l0,0c0,0,0,0-0.1,0s0,0-0.1,0l0,0c-1.7,0-3.4,0-5,0c0-0.1,0-0.2,0-0.3c0-1,0-1.9,0-2.9   c0-1,0-2,0-3v0l0,0v0c0,0,0,0,0,0l0,0c0-0.2,0-0.3-0.1-0.5c-0.1-0.2-0.3-0.3-0.5-0.3c-1.9-0.5-3.6-1.2-5.3-2.2   c-0.1-0.1-0.3-0.1-0.5-0.1c-0.2,0-0.4,0.1-0.6,0.3c-1.4,1.4-2.8,2.8-4.2,4.2c-0.1,0.1-0.1,0.1-0.2,0.2c-2.4-2.4-4.8-4.8-7.2-7.2   c1.4-1.4,2.8-2.8,4.3-4.2c0.2-0.2,0.4-0.4,0.4-0.7c0-0.2-0.1-0.4-0.2-0.6c-1-1.6-1.7-3.4-2.2-5.2c0-0.1-0.1-0.2-0.1-0.3l-0.1-0.2   h-0.2c-2.2,0-4.4,0-6.6,0c0-3.4,0-6.7,0-10c2.2,0,4.4,0,6.6,0h0.2l0.1-0.2c0.3-0.8,0.4-1.6,0.7-2.2c0.5-1.2,1.1-2.4,1.7-3.5   c0.1-0.1,0.1-0.3,0.1-0.4c0-0.2-0.1-0.4-0.3-0.5c-1.4-1.4-2.8-2.8-4.2-4.2c-0.1-0.1-0.1-0.1-0.2-0.2c2.4-2.4,4.7-4.7,7.1-7.1   c0.7,0.7,1.3,1.3,2,2c0.8,0.8,1.6,1.6,2.4,2.4c0.1,0.1,0.3,0.3,0.5,0.3c0.2,0,0.3-0.1,0.4-0.1c1.7-1,3.5-1.8,5.4-2.2   c0.2,0,0.4-0.2,0.5-0.3c0.1-0.2,0.1-0.3,0.1-0.5l0,0c0-0.4,0-2.5,0-3.2c0-0.9,0-1.8,0-2.7l0,0l0,0l0,0c0-0.2,0-0.3,0-0.3   c0,0,0.1,0,0.3,0l0,0c1.6,0,3.2,0,4.8,0v0c0,0,0,0,0.1,0s0,0,0.1,0v0c1.6,0,3.2,0,4.8,0l0,0c0.2,0,0.3,0,0.3,0c0,0,0,0.1,0,0.3l0,0   l0,0l0,0c0,0.9,0,1.8,0,2.7c0,0.7,0,1.4,0,2.1c0,0.4,0,0.7,0,1.1l0,0c0,0.1,0,0.3,0.1,0.5c0.1,0.2,0.3,0.3,0.5,0.3   c1.9,0.5,3.7,1.3,5.4,2.2c0.1,0.1,0.3,0.1,0.4,0.1c0.2,0,0.4-0.1,0.5-0.3c0.8-0.8,1.6-1.6,2.4-2.4c0.7-0.7,1.4-1.4,2-2   c2.4,2.4,4.7,4.7,7.1,7.1c-0.1,0-0.1,0.1-0.2,0.2c-1.4,1.4-2.8,2.8-4.2,4.2c-0.1,0.1-0.3,0.3-0.3,0.5c0,0.1,0.1,0.3,0.1,0.4   c0.6,1.2,1.1,2.3,1.7,3.5c0.3,0.7,0.5,1.4,0.7,2.2l0.1,0.2h0.2c2.2,0,4.4,0,6.6,0C86.8,61.6,86.8,64.9,86.8,68.3z"/><path d="M58.7,48.1L58.7,48.1L58.7,48.1C58.6,48.1,58.6,48.1,58.7,48.1c-0.1,0-0.1,0-0.1,0v0l0,0c-8.3,0-15.1,6.8-15.2,15.1l0,0.1   c0,8.3,6.8,15.1,15.1,15.1l0.1,0c0,0,0,0,0,0c0,0,0,0,0,0l0.1,0c8.3,0,15.1-6.8,15.1-15.1l0-0.1C73.8,54.9,67,48.1,58.7,48.1z    M58.7,76.5L58.7,76.5L58.7,76.5C58.6,76.5,58.6,76.5,58.7,76.5c-0.1,0-0.1,0-0.1,0v0h0c-7.2,0-13.2-6-13.2-13.2l0-0.1   c0-7.3,6-13.2,13.2-13.2c0,0,0,0,0,0v0c0,0,0,0,0.1,0c0,0,0,0,0.1,0v0c0,0,0,0,0,0c7.2,0,13.2,5.9,13.2,13.2l0,0.1   C71.9,70.5,65.9,76.5,58.7,76.5z"/></g></svg>