<?xml version="1.0" encoding="utf-8"?>
<!-- Generator: Adobe Illustrator 21.0.2, SVG Export Plug-In . SVG Version: 6.00 Build 0)  -->
<svg version="1.1" xmlns="http://www.w3.org/2000/svg" xmlns:xlink="http://www.w3.org/1999/xlink" x="0px" y="0px"
	 viewBox="0 0 100 100" style="enable-background:new 0 0 100 100;" xml:space="preserve">
<style type="text/css">
	.st0{fill:#010101;}
</style>
<g id="Layer_1">
	<g>
		<polygon class="st0" points="78.1,51.4 78.1,79.2 22,79.2 22,26.5 50.4,26.5 50.4,24.5 20,24.5 20,81.2 80,81.2 80,51.4 		"/>
		<path d="M47.9,62.4C47.3,63,47,63.6,47,64.5c0,0.8,0.3,1.5,0.9,2.1c0.6,0.6,1.2,0.9,2.1,0.9c0.8,0,1.5-0.3,2.1-0.9
			s0.9-1.3,0.9-2.1c0-0.9-0.3-1.6-0.9-2.1c-0.6-0.6-1.3-0.8-2.1-0.8C49.2,61.5,48.6,61.8,47.9,62.4z"/>
	</g>
	<polygon points="45.1,43.5 45.1,47.6 42.7,47.6 42.7,38.9 57.3,38.9 57.3,51.1 52,56.3 51.1,54.4 54.9,50.6 54.9,41.2 45.1,41.2 	
		"/>
</g>
<g id="Слой_2">
</g>
</svg>
