<?xml version="1.0" ?><svg enable-background="new 0 0 130 130" id="Layer_1" version="1.1" viewBox="0 0 130 130" xml:space="preserve" xmlns="http://www.w3.org/2000/svg" xmlns:xlink="http://www.w3.org/1999/xlink"><path d="M93.4,79.2L80.7,66.1c-0.4-0.4-1-0.4-1.4,0L68.4,77c-0.4,0.4-0.4,1-0.1,1.4c0.4,0.4,1,0.4,1.4,0.1l10.2-10.3  l11.3,11.7L78.1,92.6l-42-42l12.7-13.1l11.7,11.3L50.2,58.9c-0.4,0.4-0.3,1,0.1,1.4c0.4,0.4,1,0.3,1.4-0.1l10.9-10.9  c0.4-0.4,0.3-1,0-1.4L49.4,35.3c-0.4-0.4-1-0.4-1.4,0l-14,14.6c-0.4,0.4-0.4,1,0,1.4l43.4,43.4c0.4,0.4,1,0.4,1.4,0l14.6-14  C93.7,80.3,93.7,79.6,93.4,79.2z" fill="#010101"/></svg>